<?xml version="1.0" encoding="UTF-8"?>
<svg version="1.1" xmlns="http://www.w3.org/2000/svg" width="128" height="128">
<path d="M0,0 L128,0 L128,128 L0,128 Z " fill="#7A4726" transform="translate(0,0)"/>
<path d="M0,0 L128,0 L128,128 L0,128 Z M28,10 L28,11 L24,11 L24,12 L21,12 L21,13 L20,13 L20,14 L14,14 L14,15 L11,15 L11,16 L10,16 L10,17 L8,17 L8,19 L7,19 L7,20 L6,20 L6,30 L7,30 L7,32 L8,32 L8,35 L10,35 L10,42 L11,42 L11,43 L10,43 L10,45 L11,45 L11,48 L10,48 L10,59 L11,59 L11,60 L10,60 L10,62 L11,62 L11,65 L10,65 L10,77 L11,77 L11,80 L10,80 L10,82 L9,82 L9,83 L8,83 L8,85 L7,85 L7,86 L6,86 L6,87 L5,87 L5,88 L4,88 L4,90 L3,90 L3,93 L2,93 L2,99 L3,99 L3,98 L5,98 L5,104 L6,104 L6,105 L8,105 L8,106 L14,106 L14,107 L41,107 L41,106 L42,106 L42,107 L43,107 L43,108 L44,108 L44,109 L46,109 L46,110 L52,110 L52,111 L53,111 L53,112 L55,112 L55,113 L58,113 L58,114 L61,114 L61,115 L63,115 L63,116 L67,116 L67,117 L92,117 L92,116 L96,116 L96,115 L98,115 L98,114 L101,114 L101,113 L106,113 L106,112 L107,112 L107,111 L108,111 L108,110 L109,110 L109,109 L110,109 L110,107 L111,107 L111,106 L112,106 L112,105 L114,105 L114,104 L115,104 L115,103 L116,103 L116,102 L117,102 L117,100 L118,100 L118,97 L119,97 L119,90 L120,90 L120,76 L119,76 L119,74 L117,74 L117,72 L116,72 L116,69 L115,69 L115,68 L114,68 L114,67 L113,67 L113,64 L115,64 L115,63 L117,63 L117,62 L120,62 L120,61 L121,61 L121,58 L123,58 L123,37 L124,37 L124,28 L123,28 L123,27 L122,27 L122,26 L121,26 L121,25 L120,25 L120,24 L118,24 L118,23 L116,23 L116,22 L115,22 L115,21 L112,21 L112,16 L111,16 L111,14 L110,14 L110,13 L109,13 L109,12 L107,12 L107,11 L79,11 L79,12 L78,12 L78,13 L77,13 L77,14 L76,14 L76,15 L75,15 L75,16 L74,16 L74,17 L73,17 L73,19 L72,19 L72,20 L70,20 L70,21 L69,21 L69,22 L67,22 L67,23 L65,23 L65,24 L64,24 L64,27 L61,27 L61,28 L60,28 L60,30 L59,30 L59,31 L58,31 L58,34 L57,34 L57,35 L54,35 L54,34 L53,34 L53,33 L52,33 L52,32 L51,32 L51,30 L50,30 L50,28 L49,28 L49,27 L48,27 L48,26 L47,26 L47,25 L46,25 L46,23 L45,23 L45,22 L44,22 L44,20 L43,20 L43,19 L42,19 L42,17 L41,17 L41,16 L40,16 L40,15 L39,15 L39,12 L38,12 L38,10 Z " fill="#080E1B" transform="translate(0,0)"/>
<path d="M0,0 L24,0 L24,7 L21,7 L21,8 L20,8 L20,9 L19,9 L19,10 L20,10 L20,11 L22,11 L22,13 L24,13 L24,14 L29,14 L29,12 L35,12 L35,13 L36,13 L36,21 L35,21 L35,39 L36,39 L36,40 L37,40 L37,41 L36,41 L36,42 L35,42 L35,43 L25,43 L25,42 L24,42 L24,39 L23,39 L23,34 L22,34 L22,31 L21,31 L21,29 L20,29 L20,27 L18,27 L18,36 L17,36 L17,42 L19,42 L19,43 L21,43 L21,44 L22,44 L22,45 L23,45 L23,46 L25,46 L25,47 L26,47 L26,48 L27,48 L27,49 L28,49 L28,50 L29,50 L29,51 L30,51 L30,52 L31,52 L31,53 L32,53 L32,55 L33,55 L33,57 L34,57 L34,58 L35,58 L35,61 L36,61 L36,78 L35,78 L35,80 L34,80 L34,82 L33,82 L33,84 L32,84 L32,85 L31,85 L31,87 L30,87 L30,88 L29,88 L29,89 L28,89 L28,90 L27,90 L27,91 L25,91 L25,92 L24,92 L24,93 L23,93 L23,94 L21,94 L21,95 L19,95 L19,96 L16,96 L16,97 L13,97 L13,98 L8,98 L8,99 L-5,99 L-5,98 L-10,98 L-10,96 L-11,96 L-11,95 L-10,95 L-10,94 L-13,94 L-13,93 L-16,93 L-16,92 L-19,92 L-19,91 L-21,91 L-21,90 L-24,90 L-24,89 L-26,89 L-26,88 L-28,88 L-28,87 L-30,87 L-30,86 L-31,86 L-31,85 L-32,85 L-32,70 L-25,70 L-25,72 L-24,72 L-24,74 L-23,74 L-23,76 L-22,76 L-22,77 L-21,77 L-21,78 L-20,78 L-20,79 L-19,79 L-19,80 L-18,80 L-18,81 L-17,81 L-17,82 L-15,82 L-15,83 L-12,83 L-12,84 L-9,84 L-9,85 L-4,85 L-4,86 L7,86 L7,85 L10,85 L10,84 L13,84 L13,83 L15,83 L15,82 L16,82 L16,80 L17,80 L17,79 L18,79 L18,76 L19,76 L19,67 L18,67 L18,65 L16,65 L16,64 L15,64 L15,63 L14,63 L14,62 L13,62 L13,61 L12,61 L12,59 L11,59 L11,58 L10,58 L10,57 L9,57 L9,56 L7,56 L7,55 L6,55 L6,54 L4,54 L4,53 L3,53 L3,52 L1,52 L1,51 L0,51 L0,50 L-2,50 L-2,49 L-3,49 L-3,48 L-5,48 L-5,47 L-6,47 L-6,46 L-8,46 L-8,45 L-9,45 L-9,44 L-10,44 L-10,43 L-11,43 L-11,42 L-12,42 L-12,41 L-13,41 L-13,40 L-14,40 L-14,39 L-16,39 L-16,37 L-17,37 L-17,35 L-18,35 L-18,33 L-19,33 L-19,20 L-18,20 L-18,18 L-17,18 L-17,16 L-16,16 L-16,15 L-15,15 L-15,14 L-14,14 L-14,13 L-13,13 L-13,12 L-12,12 L-12,11 L-10,11 L-10,10 L-8,10 L-8,9 L-6,9 L-6,8 L-1,8 L-1,9 L1,9 L1,10 L2,10 L2,11 L3,11 L3,21 L4,21 L4,8 L3,8 L3,7 L1,7 L1,6 L0,6 Z " fill="#2C2540" transform="translate(81,17)"/>
<path d="M0,0 L3,0 L3,2 L4,2 L4,3 L5,3 L5,5 L6,5 L6,6 L7,6 L7,7 L8,7 L8,9 L9,9 L9,10 L10,10 L10,11 L11,11 L11,13 L12,13 L12,14 L13,14 L13,16 L14,16 L14,17 L15,17 L15,18 L16,18 L16,20 L17,20 L17,21 L18,21 L18,23 L19,23 L19,24 L20,24 L20,25 L21,25 L21,27 L22,27 L22,28 L23,28 L23,29 L24,29 L24,31 L25,31 L25,32 L26,32 L26,33 L27,33 L27,35 L28,35 L28,36 L29,36 L29,37 L30,37 L30,39 L31,39 L31,40 L32,40 L32,42 L33,42 L33,43 L34,43 L34,44 L35,44 L35,46 L36,46 L36,47 L37,47 L37,48 L38,48 L38,50 L39,50 L39,51 L40,51 L40,52 L41,52 L41,54 L42,54 L42,55 L43,55 L43,56 L44,56 L44,58 L45,58 L45,59 L46,59 L46,61 L47,61 L47,62 L48,62 L48,63 L49,63 L49,56 L50,56 L50,54 L51,54 L51,55 L52,55 L52,56 L54,56 L54,57 L55,57 L55,58 L57,58 L57,59 L58,59 L58,60 L60,60 L60,61 L61,61 L61,75 L62,75 L62,76 L64,76 L64,81 L40,81 L40,82 L39,82 L39,74 L38,74 L38,73 L37,73 L37,72 L36,72 L36,70 L35,70 L35,69 L34,69 L34,68 L33,68 L33,66 L32,66 L32,65 L31,65 L31,64 L30,64 L30,60 L29,60 L29,59 L28,59 L28,58 L27,58 L27,56 L26,56 L26,55 L25,55 L25,54 L24,54 L24,53 L23,53 L23,51 L22,51 L22,50 L21,50 L21,49 L20,49 L20,47 L19,47 L19,46 L18,46 L18,45 L17,45 L17,43 L16,43 L16,42 L15,42 L15,41 L14,41 L14,39 L13,39 L13,38 L12,38 L12,37 L10,37 L10,36 L9,36 L9,35 L8,35 L8,33 L7,33 L7,32 L6,32 L6,31 L5,31 L5,29 L4,29 L4,28 L3,28 L3,27 L2,27 L2,25 L1,25 L1,24 L0,24 L0,23 L-1,23 L-1,72 L0,72 L0,73 L1,73 L1,74 L2,74 L2,75 L6,75 L6,81 L-19,81 L-19,75 L-15,75 L-15,74 L-14,74 L-14,73 L-13,73 L-13,72 L-12,72 L-12,69 L-11,69 L-11,14 L-12,14 L-12,13 L-13,13 L-13,12 L-15,12 L-15,11 L-16,11 L-16,7 L-15,7 L-15,6 L-13,6 L-13,5 L-10,5 L-10,4 L-8,4 L-8,3 L-5,3 L-5,2 L-2,2 L-2,1 L0,1 Z " fill="#EDAC4F" transform="translate(31,17)"/>
<path d="M0,0 L5,0 L5,1 L6,1 L6,2 L7,2 L7,3 L8,3 L8,5 L9,5 L9,6 L10,6 L10,8 L11,8 L11,9 L12,9 L12,10 L13,10 L13,12 L14,12 L14,13 L15,13 L15,14 L16,14 L16,16 L17,16 L17,17 L18,17 L18,19 L19,19 L19,20 L20,20 L20,21 L21,21 L21,23 L22,23 L22,24 L23,24 L23,25 L24,25 L24,27 L25,27 L25,28 L26,28 L26,29 L27,29 L27,31 L29,31 L29,22 L30,22 L30,20 L31,20 L31,18 L32,18 L32,17 L33,17 L33,16 L34,16 L34,15 L35,15 L35,14 L36,14 L36,13 L37,13 L37,12 L38,12 L38,11 L40,11 L40,10 L42,10 L42,9 L44,9 L44,8 L48,8 L48,2 L49,2 L49,1 L50,1 L50,0 L77,0 L77,1 L78,1 L78,12 L76,12 L76,14 L78,14 L78,13 L79,13 L79,12 L87,12 L87,13 L89,13 L89,14 L90,14 L90,24 L89,24 L89,39 L88,39 L88,43 L87,43 L87,42 L86,42 L86,24 L87,24 L87,16 L86,16 L86,15 L80,15 L80,17 L75,17 L75,16 L73,16 L73,14 L71,14 L71,13 L70,13 L70,12 L71,12 L71,11 L72,11 L72,10 L75,10 L75,3 L51,3 L51,9 L52,9 L52,10 L54,10 L54,11 L55,11 L55,24 L54,24 L54,14 L53,14 L53,13 L52,13 L52,12 L50,12 L50,11 L45,11 L45,12 L43,12 L43,13 L41,13 L41,14 L39,14 L39,15 L38,15 L38,16 L37,16 L37,17 L36,17 L36,18 L35,18 L35,19 L34,19 L34,21 L33,21 L33,23 L32,23 L32,36 L33,36 L33,38 L34,38 L34,40 L35,40 L35,42 L37,42 L37,43 L38,43 L38,44 L39,44 L39,45 L40,45 L40,46 L41,46 L41,47 L42,47 L42,48 L43,48 L43,49 L45,49 L45,50 L46,50 L46,51 L48,51 L48,52 L49,52 L49,53 L51,53 L51,54 L52,54 L52,55 L54,55 L54,56 L55,56 L55,57 L57,57 L57,58 L58,58 L58,59 L60,59 L60,60 L61,60 L61,61 L62,61 L62,62 L63,62 L63,64 L64,64 L64,65 L65,65 L65,66 L66,66 L66,67 L67,67 L67,68 L69,68 L69,70 L70,70 L70,79 L69,79 L69,82 L68,82 L68,83 L67,83 L67,85 L66,85 L66,86 L64,86 L64,87 L61,87 L61,88 L58,88 L58,89 L47,89 L47,88 L42,88 L42,87 L39,87 L39,86 L36,86 L36,85 L34,85 L34,84 L33,84 L33,83 L32,83 L32,82 L31,82 L31,81 L30,81 L30,80 L29,80 L29,79 L28,79 L28,77 L27,77 L27,75 L26,75 L26,73 L19,73 L19,88 L20,88 L20,89 L21,89 L21,90 L23,90 L23,91 L25,91 L25,92 L27,92 L27,93 L30,93 L30,94 L32,94 L32,95 L35,95 L35,96 L38,96 L38,97 L41,97 L41,98 L40,98 L40,99 L41,99 L41,100 L37,100 L37,99 L34,99 L34,98 L31,98 L31,97 L29,97 L29,96 L26,96 L26,95 L24,95 L24,94 L22,94 L22,93 L20,93 L20,92 L18,92 L18,91 L17,91 L17,90 L16,90 L16,71 L17,71 L17,70 L18,70 L18,69 L27,69 L27,70 L28,70 L28,71 L29,71 L29,73 L30,73 L30,76 L31,76 L31,78 L32,78 L32,79 L33,79 L33,80 L35,80 L35,81 L36,81 L36,77 L35,77 L35,76 L34,76 L34,75 L33,75 L33,73 L32,73 L32,72 L31,72 L31,71 L30,71 L30,69 L29,69 L29,68 L28,68 L28,67 L27,67 L27,65 L26,65 L26,64 L25,64 L25,63 L24,63 L24,61 L23,61 L23,60 L22,60 L22,59 L21,59 L21,57 L20,57 L20,56 L19,56 L19,55 L18,55 L18,54 L17,54 L17,52 L16,52 L16,51 L15,51 L15,50 L14,50 L14,48 L13,48 L13,47 L12,47 L12,46 L11,46 L11,44 L10,44 L10,43 L9,43 L9,42 L8,42 L8,41 L7,41 L7,39 L6,39 L6,38 L5,38 L5,36 L3,36 L3,72 L4,72 L4,74 L5,74 L5,75 L9,75 L9,76 L10,76 L10,77 L11,77 L11,86 L10,86 L10,87 L9,87 L9,88 L-20,88 L-20,87 L-21,87 L-21,76 L-19,76 L-19,75 L-16,75 L-16,74 L-15,74 L-15,73 L-14,73 L-14,71 L-13,71 L-13,21 L-14,21 L-14,20 L-15,20 L-15,19 L-17,19 L-17,18 L-18,18 L-18,17 L-19,17 L-19,9 L-18,9 L-18,8 L-17,8 L-17,7 L-16,7 L-16,6 L-13,6 L-13,5 L-11,5 L-11,4 L-8,4 L-8,3 L-6,3 L-6,2 L-3,2 L-3,1 L0,1 Z M1,3 L1,4 L-1,4 L-1,5 L-4,5 L-4,6 L-7,6 L-7,7 L-9,7 L-9,8 L-12,8 L-12,9 L-14,9 L-14,10 L-15,10 L-15,14 L-14,14 L-14,15 L-12,15 L-12,16 L-11,16 L-11,17 L-10,17 L-10,72 L-11,72 L-11,75 L-12,75 L-12,76 L-13,76 L-13,77 L-14,77 L-14,78 L-18,78 L-18,84 L7,84 L7,78 L3,78 L3,77 L2,77 L2,76 L1,76 L1,75 L0,75 L0,26 L1,26 L1,27 L2,27 L2,28 L3,28 L3,30 L4,30 L4,31 L5,31 L5,32 L6,32 L6,34 L7,34 L7,35 L8,35 L8,36 L9,36 L9,38 L10,38 L10,39 L11,39 L11,40 L13,40 L13,41 L14,41 L14,42 L15,42 L15,44 L16,44 L16,45 L17,45 L17,46 L18,46 L18,48 L19,48 L19,49 L20,49 L20,50 L21,50 L21,52 L22,52 L22,53 L23,53 L23,54 L24,54 L24,56 L25,56 L25,57 L26,57 L26,58 L27,58 L27,59 L28,59 L28,61 L29,61 L29,62 L30,62 L30,63 L31,63 L31,67 L32,67 L32,68 L33,68 L33,69 L34,69 L34,71 L35,71 L35,72 L36,72 L36,73 L37,73 L37,75 L38,75 L38,76 L39,76 L39,77 L40,77 L40,85 L41,85 L41,84 L65,84 L65,79 L63,79 L63,78 L62,78 L62,64 L61,64 L61,63 L59,63 L59,62 L58,62 L58,61 L56,61 L56,60 L55,60 L55,59 L53,59 L53,58 L52,58 L52,57 L51,57 L51,59 L50,59 L50,66 L49,66 L49,65 L48,65 L48,64 L47,64 L47,62 L46,62 L46,61 L45,61 L45,59 L44,59 L44,58 L43,58 L43,57 L42,57 L42,55 L41,55 L41,54 L40,54 L40,53 L39,53 L39,51 L38,51 L38,50 L37,50 L37,49 L36,49 L36,47 L35,47 L35,46 L34,46 L34,45 L33,45 L33,43 L32,43 L32,42 L31,42 L31,40 L30,40 L30,39 L29,39 L29,38 L28,38 L28,36 L27,36 L27,35 L26,35 L26,34 L25,34 L25,32 L24,32 L24,31 L23,31 L23,30 L22,30 L22,28 L21,28 L21,27 L20,27 L20,26 L19,26 L19,24 L18,24 L18,23 L17,23 L17,21 L16,21 L16,20 L15,20 L15,19 L14,19 L14,17 L13,17 L13,16 L12,16 L12,14 L11,14 L11,13 L10,13 L10,12 L9,12 L9,10 L8,10 L8,9 L7,9 L7,8 L6,8 L6,6 L5,6 L5,5 L4,5 L4,3 Z " fill="#171C45" transform="translate(30,14)"/>
<path d="M0,0 L5,0 L5,1 L7,1 L7,2 L8,2 L8,7 L4,7 L4,8 L2,8 L2,9 L1,9 L1,10 L0,10 L0,11 L-1,11 L-1,20 L0,20 L0,21 L1,21 L1,23 L2,23 L2,24 L3,24 L3,25 L5,25 L5,26 L6,26 L6,27 L7,27 L7,28 L9,28 L9,29 L10,29 L10,30 L12,30 L12,31 L14,31 L14,32 L15,32 L15,33 L17,33 L17,34 L19,34 L19,35 L20,35 L20,36 L22,36 L22,37 L23,37 L23,38 L25,38 L25,39 L26,39 L26,40 L28,40 L28,41 L29,41 L29,42 L30,42 L30,43 L31,43 L31,44 L32,44 L32,45 L33,45 L33,46 L34,46 L34,47 L35,47 L35,48 L36,48 L36,50 L37,50 L37,52 L38,52 L38,54 L39,54 L39,65 L38,65 L38,68 L37,68 L37,70 L36,70 L36,66 L37,66 L37,60 L36,60 L36,61 L33,61 L33,58 L32,58 L32,57 L31,57 L31,55 L30,55 L30,53 L29,53 L29,52 L28,52 L28,51 L27,51 L27,58 L26,58 L26,60 L27,60 L27,70 L26,70 L26,71 L25,71 L25,73 L24,73 L24,74 L23,74 L23,75 L22,75 L22,76 L20,76 L20,77 L19,77 L19,78 L18,78 L18,79 L14,79 L14,80 L3,80 L3,79 L-3,79 L-3,78 L-6,78 L-6,77 L-9,77 L-9,76 L-11,76 L-11,75 L-12,75 L-12,74 L-14,74 L-14,73 L-15,73 L-15,72 L-16,72 L-16,71 L-17,71 L-17,70 L-18,70 L-18,68 L-19,68 L-19,66 L-20,66 L-20,64 L-24,64 L-24,76 L-25,76 L-25,62 L-19,62 L-19,64 L-18,64 L-18,66 L-17,66 L-17,68 L-16,68 L-16,69 L-15,69 L-15,70 L-14,70 L-14,71 L-13,71 L-13,72 L-12,72 L-12,73 L-11,73 L-11,74 L-9,74 L-9,75 L-6,75 L-6,76 L-3,76 L-3,77 L2,77 L2,78 L13,78 L13,77 L16,77 L16,76 L19,76 L19,75 L21,75 L21,74 L22,74 L22,72 L23,72 L23,71 L24,71 L24,68 L25,68 L25,59 L24,59 L24,57 L22,57 L22,56 L21,56 L21,55 L20,55 L20,54 L19,54 L19,53 L18,53 L18,51 L17,51 L17,50 L16,50 L16,49 L15,49 L15,48 L13,48 L13,47 L12,47 L12,46 L10,46 L10,45 L9,45 L9,44 L7,44 L7,43 L6,43 L6,42 L4,42 L4,41 L3,41 L3,40 L1,40 L1,39 L0,39 L0,38 L-2,38 L-2,37 L-3,37 L-3,36 L-4,36 L-4,35 L-5,35 L-5,34 L-6,34 L-6,33 L-7,33 L-7,32 L-8,32 L-8,31 L-10,31 L-10,29 L-11,29 L-11,27 L-12,27 L-12,25 L-13,25 L-13,12 L-12,12 L-12,10 L-11,10 L-11,8 L-10,8 L-10,7 L-9,7 L-9,6 L-8,6 L-8,5 L-7,5 L-7,4 L-6,4 L-6,3 L-4,3 L-4,2 L-2,2 L-2,1 L0,1 Z " fill="#C76C20" transform="translate(75,25)"/>
<path d="M0,0 L2,0 L2,2 L3,2 L3,3 L4,3 L4,4 L5,4 L5,5 L6,5 L6,7 L7,7 L7,8 L8,8 L8,9 L9,9 L9,11 L10,11 L10,12 L11,12 L11,13 L12,13 L12,15 L13,15 L13,16 L14,16 L14,17 L15,17 L15,19 L16,19 L16,20 L17,20 L17,21 L20,21 L20,20 L21,20 L21,18 L23,18 L23,16 L24,16 L24,17 L25,17 L25,19 L26,19 L26,20 L27,20 L27,22 L28,22 L28,23 L29,23 L29,24 L30,24 L30,26 L31,26 L31,27 L32,27 L32,28 L33,28 L33,30 L34,30 L34,31 L35,31 L35,32 L36,32 L36,34 L37,34 L37,35 L38,35 L38,36 L39,36 L39,38 L40,38 L40,39 L41,39 L41,41 L42,41 L42,42 L43,42 L43,43 L44,43 L44,36 L45,36 L45,34 L46,34 L46,35 L47,35 L47,36 L49,36 L49,37 L50,37 L50,38 L52,38 L52,39 L53,39 L53,40 L55,40 L55,41 L56,41 L56,55 L57,55 L57,56 L59,56 L59,61 L35,61 L35,62 L34,62 L34,54 L33,54 L33,53 L32,53 L32,52 L31,52 L31,50 L30,50 L30,49 L29,49 L29,48 L28,48 L28,46 L27,46 L27,45 L26,45 L26,44 L25,44 L25,40 L24,40 L24,39 L23,39 L23,38 L22,38 L22,36 L21,36 L21,35 L20,35 L20,34 L19,34 L19,33 L18,33 L18,31 L17,31 L17,30 L16,30 L16,29 L15,29 L15,27 L14,27 L14,26 L13,26 L13,25 L12,25 L12,23 L11,23 L11,22 L10,22 L10,21 L9,21 L9,19 L8,19 L8,18 L7,18 L7,17 L5,17 L5,16 L4,16 L4,15 L3,15 L3,13 L2,13 L2,12 L1,12 L1,11 L0,11 L0,9 L-1,9 L-1,8 L-2,8 L-2,7 L-3,7 L-3,5 L-2,5 L-2,6 L-1,6 L-1,7 L0,7 L0,5 L-1,5 L-1,4 L0,4 Z " fill="#BD661F" transform="translate(36,37)"/>
<path d="M0,0 L10,0 L10,2 L11,2 L11,3 L9,3 L9,2 L-3,2 L-3,3 L-4,3 L-4,4 L-6,4 L-6,5 L-9,5 L-9,6 L-10,6 L-10,8 L-12,8 L-12,9 L-14,9 L-14,11 L-15,11 L-15,12 L-16,12 L-16,13 L-17,13 L-17,21 L-16,21 L-16,22 L-15,22 L-15,23 L-13,23 L-13,24 L-12,24 L-12,25 L-11,25 L-11,75 L-12,75 L-12,77 L-13,77 L-13,78 L-14,78 L-14,79 L-17,79 L-17,80 L-20,80 L-20,81 L-21,81 L-21,90 L-20,90 L-20,92 L-19,92 L-19,93 L-17,93 L-17,94 L10,94 L10,93 L15,93 L15,95 L16,95 L16,96 L17,96 L17,97 L18,97 L18,98 L19,98 L19,99 L20,99 L20,100 L18,100 L18,99 L16,99 L16,98 L15,98 L15,97 L14,97 L14,96 L13,96 L13,97 L-14,97 L-14,96 L-20,96 L-20,95 L-22,95 L-22,94 L-23,94 L-23,88 L-25,88 L-25,89 L-26,89 L-26,83 L-25,83 L-25,80 L-24,80 L-24,78 L-23,78 L-23,77 L-22,77 L-22,76 L-21,76 L-21,75 L-20,75 L-20,73 L-19,73 L-19,72 L-18,72 L-18,70 L-17,70 L-17,67 L-18,67 L-18,55 L-17,55 L-17,52 L-18,52 L-18,50 L-17,50 L-17,49 L-18,49 L-18,38 L-17,38 L-17,35 L-18,35 L-18,33 L-17,33 L-17,32 L-18,32 L-18,25 L-20,25 L-20,22 L-21,22 L-21,20 L-22,20 L-22,10 L-21,10 L-21,9 L-20,9 L-20,7 L-18,7 L-18,6 L-17,6 L-17,5 L-14,5 L-14,4 L-8,4 L-8,3 L-7,3 L-7,2 L-4,2 L-4,1 L0,1 Z " fill="#472D22" transform="translate(28,10)"/>
<path d="M0,0 L2,0 L2,2 L3,2 L3,3 L4,3 L4,5 L5,5 L5,6 L6,6 L6,7 L7,7 L7,8 L8,8 L8,10 L9,10 L9,11 L10,11 L10,12 L11,12 L11,14 L12,14 L12,15 L13,15 L13,16 L14,16 L14,18 L15,18 L15,19 L16,19 L16,20 L17,20 L17,21 L18,21 L18,23 L19,23 L19,24 L20,24 L20,25 L21,25 L21,27 L22,27 L22,28 L23,28 L23,29 L24,29 L24,31 L25,31 L25,32 L26,32 L26,33 L27,33 L27,35 L28,35 L28,36 L29,36 L29,37 L30,37 L30,39 L31,39 L31,40 L32,40 L32,41 L33,41 L33,45 L32,45 L32,44 L30,44 L30,43 L29,43 L29,42 L28,42 L28,40 L27,40 L27,37 L26,37 L26,35 L25,35 L25,34 L24,34 L24,33 L15,33 L15,34 L14,34 L14,35 L13,35 L13,54 L14,54 L14,55 L15,55 L15,56 L13,56 L13,55 L12,55 L12,53 L11,53 L11,50 L9,50 L9,51 L8,51 L8,52 L7,52 L7,53 L5,53 L5,54 L-22,54 L-22,53 L-24,53 L-24,52 L-25,52 L-25,50 L-26,50 L-26,41 L-25,41 L-25,40 L-24,40 L-24,51 L-23,51 L-23,52 L6,52 L6,51 L7,51 L7,50 L8,50 L8,41 L7,41 L7,40 L6,40 L6,39 L2,39 L2,38 L1,38 L1,36 L0,36 Z " fill="#9E5D31" transform="translate(33,50)"/>
<path d="M0,0 L1,0 L1,1 L2,1 L2,2 L3,2 L3,4 L4,4 L4,6 L5,6 L5,7 L6,7 L6,10 L9,10 L9,9 L10,9 L10,15 L9,15 L9,19 L10,19 L10,21 L9,21 L9,24 L8,24 L8,25 L7,25 L7,26 L6,26 L6,27 L5,27 L5,28 L4,28 L4,29 L3,29 L3,30 L2,30 L2,31 L0,31 L0,32 L-1,32 L-1,33 L-4,33 L-4,34 L-6,34 L-6,35 L-10,35 L-10,36 L-30,36 L-30,35 L-34,35 L-34,34 L-37,34 L-37,33 L-40,33 L-40,32 L-42,32 L-42,31 L-45,31 L-45,30 L-47,30 L-47,29 L-49,29 L-49,28 L-51,28 L-51,27 L-52,27 L-52,26 L-53,26 L-53,11 L-52,11 L-52,25 L-51,25 L-51,13 L-47,13 L-47,15 L-46,15 L-46,17 L-45,17 L-45,19 L-44,19 L-44,20 L-43,20 L-43,21 L-42,21 L-42,22 L-41,22 L-41,23 L-39,23 L-39,24 L-38,24 L-38,25 L-36,25 L-36,26 L-33,26 L-33,27 L-30,27 L-30,28 L-24,28 L-24,29 L-13,29 L-13,28 L-9,28 L-9,27 L-8,27 L-8,26 L-7,26 L-7,25 L-5,25 L-5,24 L-4,24 L-4,23 L-3,23 L-3,22 L-2,22 L-2,20 L-1,20 L-1,19 L0,19 L0,9 L-1,9 L-1,7 L0,7 Z " fill="#8E3D14" transform="translate(102,76)"/>
<path d="M0,0 L23,0 L23,1 L22,1 L22,5 L21,5 L21,6 L19,6 L19,7 L18,7 L18,8 L17,8 L17,9 L16,9 L16,11 L15,11 L15,21 L14,21 L14,31 L13,31 L13,41 L11,41 L11,40 L9,40 L9,39 L8,39 L8,38 L6,38 L6,37 L4,37 L4,36 L3,36 L3,35 L2,35 L2,32 L3,32 L3,25 L4,25 L4,15 L5,15 L5,9 L4,9 L4,7 L3,7 L3,6 L1,6 L1,5 L0,5 Z " fill="#E8A242" transform="translate(82,17)"/>
<path d="M0,0 L1,0 L1,44 L2,44 L2,35 L3,35 L3,30 L4,30 L4,31 L5,31 L5,27 L6,27 L6,24 L7,24 L7,33 L8,33 L8,55 L9,55 L9,3 L10,3 L10,5 L11,5 L11,6 L12,6 L12,7 L13,7 L13,9 L12,9 L12,8 L11,8 L11,7 L10,7 L10,56 L11,56 L11,57 L12,57 L12,58 L13,58 L13,59 L17,59 L17,65 L-8,65 L-8,59 L-4,59 L-4,58 L-3,58 L-3,57 L-2,57 L-2,56 L-1,56 L-1,53 L0,53 Z " fill="#A84F16" transform="translate(20,33)"/>
<path d="M0,0 L5,0 L5,1 L7,1 L7,2 L8,2 L8,7 L4,7 L4,8 L2,8 L2,9 L1,9 L1,10 L0,10 L0,11 L-1,11 L-1,20 L0,20 L0,21 L1,21 L1,23 L2,23 L2,24 L3,24 L3,25 L5,25 L5,26 L6,26 L6,27 L7,27 L7,28 L9,28 L9,29 L10,29 L10,30 L12,30 L12,31 L14,31 L14,32 L15,32 L15,33 L17,33 L17,34 L19,34 L19,35 L20,35 L20,36 L22,36 L22,37 L23,37 L23,38 L25,38 L25,39 L26,39 L26,40 L28,40 L28,41 L29,41 L29,42 L30,42 L30,43 L31,43 L31,44 L32,44 L32,45 L33,45 L33,46 L34,46 L34,47 L35,47 L35,48 L36,48 L36,50 L37,50 L37,54 L36,54 L36,52 L35,52 L35,50 L34,50 L34,49 L33,49 L33,47 L32,47 L32,46 L31,46 L31,45 L30,45 L30,44 L29,44 L29,43 L28,43 L28,42 L26,42 L26,44 L25,44 L25,46 L22,46 L22,45 L21,45 L21,44 L19,44 L19,43 L18,43 L18,42 L17,42 L17,41 L15,41 L15,40 L13,40 L13,39 L12,39 L12,38 L10,38 L10,37 L7,37 L7,36 L6,36 L6,35 L4,35 L4,34 L2,34 L2,31 L1,31 L1,30 L-1,30 L-1,29 L-2,29 L-2,28 L-3,28 L-3,24 L-4,24 L-4,20 L-3,20 L-3,17 L-4,17 L-4,19 L-5,19 L-5,24 L-6,24 L-6,10 L-5,10 L-5,7 L-4,7 L-4,5 L-5,5 L-5,6 L-6,6 L-6,7 L-8,7 L-8,9 L-9,9 L-9,10 L-10,10 L-10,7 L-9,7 L-9,6 L-8,6 L-8,5 L-7,5 L-7,4 L-6,4 L-6,3 L-4,3 L-4,2 L-2,2 L-2,1 L0,1 Z " fill="#E8A74F" transform="translate(75,25)"/>
<path d="M0,0 L1,0 L1,25 L0,25 L0,30 L-1,30 L-1,31 L-2,31 L-2,33 L-3,33 L-3,34 L-4,34 L-4,35 L-5,35 L-5,36 L-6,36 L-6,37 L-7,37 L-7,40 L-6,40 L-6,41 L-5,41 L-5,43 L-4,43 L-4,45 L-3,45 L-3,47 L-2,47 L-2,51 L-1,51 L-1,53 L0,53 L0,59 L-1,59 L-1,60 L0,60 L0,62 L-1,62 L-1,65 L-2,65 L-2,69 L-3,69 L-3,71 L-4,71 L-4,74 L-5,74 L-5,75 L-6,75 L-6,76 L-7,76 L-7,78 L-8,78 L-8,80 L-9,80 L-9,81 L-10,81 L-10,82 L-11,82 L-11,83 L-13,83 L-13,84 L-14,84 L-14,85 L-16,85 L-16,86 L-17,86 L-17,87 L-19,87 L-19,88 L-21,88 L-21,89 L-25,89 L-25,90 L-28,90 L-28,91 L-52,91 L-52,90 L-55,90 L-55,89 L-58,89 L-58,88 L-62,88 L-62,87 L-69,87 L-69,86 L-71,86 L-71,85 L-73,85 L-73,83 L-75,83 L-75,82 L-76,82 L-76,81 L-72,81 L-72,82 L-71,82 L-71,83 L-69,83 L-69,84 L-66,84 L-66,85 L-63,85 L-63,86 L-61,86 L-61,87 L-57,87 L-57,88 L-32,88 L-32,87 L-28,87 L-28,86 L-26,86 L-26,85 L-23,85 L-23,84 L-18,84 L-18,83 L-17,83 L-17,82 L-16,82 L-16,81 L-15,81 L-15,80 L-14,80 L-14,78 L-13,78 L-13,77 L-12,77 L-12,76 L-10,76 L-10,75 L-9,75 L-9,74 L-8,74 L-8,73 L-7,73 L-7,71 L-6,71 L-6,68 L-5,68 L-5,61 L-4,61 L-4,47 L-5,47 L-5,45 L-7,45 L-7,43 L-8,43 L-8,40 L-9,40 L-9,39 L-10,39 L-10,38 L-11,38 L-11,35 L-9,35 L-9,34 L-7,34 L-7,33 L-4,33 L-4,32 L-3,32 L-3,29 L-1,29 L-1,8 L0,8 Z " fill="#2A1E1E" transform="translate(124,29)"/>
<path d="M0,0 L27,0 L27,1 L28,1 L28,12 L26,12 L26,14 L28,14 L28,13 L29,13 L29,12 L37,12 L37,13 L39,13 L39,14 L40,14 L40,24 L39,24 L39,39 L38,39 L38,43 L37,43 L37,42 L36,42 L36,24 L37,24 L37,16 L36,16 L36,15 L30,15 L30,17 L25,17 L25,16 L23,16 L23,14 L21,14 L21,13 L20,13 L20,12 L21,12 L21,11 L22,11 L22,10 L25,10 L25,3 L1,3 L1,9 L2,9 L2,10 L4,10 L4,11 L5,11 L5,24 L4,24 L4,14 L3,14 L3,13 L2,13 L2,12 L0,12 L0,11 L-5,11 L-5,12 L-7,12 L-7,13 L-9,13 L-9,14 L-11,14 L-11,15 L-12,15 L-12,16 L-13,16 L-13,17 L-14,17 L-14,18 L-15,18 L-15,19 L-16,19 L-16,21 L-17,21 L-17,23 L-18,23 L-18,26 L-19,26 L-19,33 L-20,33 L-20,32 L-21,32 L-21,22 L-20,22 L-20,20 L-19,20 L-19,18 L-18,18 L-18,17 L-17,17 L-17,16 L-16,16 L-16,15 L-15,15 L-15,14 L-14,14 L-14,13 L-13,13 L-13,12 L-12,12 L-12,11 L-10,11 L-10,10 L-8,10 L-8,9 L-6,9 L-6,8 L-2,8 L-2,2 L-1,2 L-1,1 L0,1 Z " fill="#0D1A4A" transform="translate(80,14)"/>
<path d="M0,0 L2,0 L2,1 L3,1 L3,2 L4,2 L4,3 L5,3 L5,4 L6,4 L6,5 L7,5 L7,7 L8,7 L8,8 L9,8 L9,10 L10,10 L10,12 L11,12 L11,10 L12,10 L12,12 L13,12 L13,23 L12,23 L12,26 L11,26 L11,28 L10,28 L10,24 L11,24 L11,18 L10,18 L10,19 L7,19 L7,16 L6,16 L6,15 L5,15 L5,13 L4,13 L4,11 L3,11 L3,10 L2,10 L2,9 L1,9 L1,16 L0,16 L0,18 L1,18 L1,28 L0,28 L0,29 L-1,29 L-1,31 L-2,31 L-2,32 L-3,32 L-3,33 L-4,33 L-4,34 L-6,34 L-6,35 L-7,35 L-7,36 L-8,36 L-8,37 L-12,37 L-12,38 L-23,38 L-23,37 L-29,37 L-29,36 L-32,36 L-32,35 L-35,35 L-35,34 L-37,34 L-37,33 L-38,33 L-38,32 L-40,32 L-40,31 L-41,31 L-41,30 L-42,30 L-42,29 L-43,29 L-43,28 L-44,28 L-44,26 L-45,26 L-45,24 L-46,24 L-46,22 L-50,22 L-50,34 L-51,34 L-51,20 L-45,20 L-45,22 L-44,22 L-44,24 L-43,24 L-43,26 L-42,26 L-42,27 L-41,27 L-41,28 L-40,28 L-40,29 L-39,29 L-39,30 L-38,30 L-38,31 L-37,31 L-37,32 L-35,32 L-35,33 L-32,33 L-32,34 L-29,34 L-29,35 L-24,35 L-24,36 L-13,36 L-13,35 L-10,35 L-10,34 L-7,34 L-7,33 L-5,33 L-5,32 L-4,32 L-4,30 L-3,30 L-3,29 L-2,29 L-2,26 L-1,26 L-1,17 L-2,17 L-2,15 L-3,15 L-3,13 L-4,13 L-4,12 L-5,12 L-5,11 L-3,11 L-3,4 L-1,4 L-1,2 L0,2 Z " fill="#DA822F" transform="translate(101,67)"/>
<path d="M0,0 L3,0 L3,1 L2,1 L2,11 L3,11 L3,45 L2,45 L2,36 L1,36 L1,39 L0,39 L0,43 L-1,43 L-1,42 L-2,42 L-2,47 L-3,47 L-3,56 L-4,56 L-4,12 L-5,12 L-5,10 L-6,10 L-6,9 L-7,9 L-7,8 L-9,8 L-9,7 L-10,7 L-10,3 L-9,3 L-9,2 L-7,2 L-7,1 L-5,1 L-5,2 L-2,2 L-2,1 L0,1 Z " fill="#DE882B" transform="translate(25,21)"/>
<path d="M0,0 L4,0 L4,1 L5,1 L5,5 L6,5 L6,6 L7,6 L7,8 L8,8 L8,9 L9,9 L9,10 L10,10 L10,12 L11,12 L11,13 L12,13 L12,14 L13,14 L13,16 L14,16 L14,17 L15,17 L15,18 L16,18 L16,19 L17,19 L17,23 L16,23 L16,24 L12,24 L12,25 L11,25 L11,26 L10,26 L10,28 L9,28 L9,31 L7,31 L7,32 L6,32 L6,31 L4,31 L4,30 L1,30 L1,29 L0,29 Z " fill="#322627" transform="translate(35,58)"/>
<path d="M0,0 L1,0 L1,1 L2,1 L2,2 L4,2 L4,3 L5,3 L5,4 L7,4 L7,5 L8,5 L8,6 L10,6 L10,8 L9,8 L9,21 L10,21 L10,23 L12,23 L12,26 L-9,26 L-9,23 L-8,23 L-8,20 L-9,20 L-9,19 L-10,19 L-10,17 L-11,17 L-11,16 L-10,16 L-10,15 L-9,15 L-9,13 L-8,13 L-8,14 L-7,14 L-7,15 L-6,15 L-6,16 L-4,16 L-4,15 L-3,15 L-3,14 L-2,14 L-2,13 L-1,13 L-1,14 L1,14 L1,7 L2,7 L2,3 L1,3 L1,4 L0,4 L0,10 L-2,10 L-2,9 L-1,9 L-1,2 L0,2 Z " fill="#903D12" transform="translate(81,71)"/>
<path d="M0,0 L2,0 L2,1 L4,1 L4,2 L9,2 L9,0 L15,0 L15,1 L16,1 L16,9 L15,9 L15,19 L14,19 L14,27 L7,27 L7,20 L6,20 L6,16 L5,16 L5,14 L4,14 L4,12 L3,12 L3,11 L2,11 L2,10 L1,10 L1,9 L0,9 L0,8 L-1,8 L-1,1 L0,1 Z " fill="#E2983B" transform="translate(101,29)"/>
<path d="M0,0 L1,0 L1,1 L2,1 L2,3 L3,3 L3,4 L4,4 L4,6 L5,6 L5,7 L6,7 L6,8 L7,8 L7,10 L8,10 L8,11 L9,11 L9,12 L10,12 L10,14 L11,14 L11,15 L12,15 L12,16 L13,16 L13,18 L14,18 L14,19 L15,19 L15,20 L16,20 L16,22 L17,22 L17,23 L18,23 L18,25 L19,25 L19,26 L20,26 L20,28 L22,28 L22,22 L23,22 L23,21 L24,21 L24,25 L23,25 L23,32 L21,32 L21,31 L20,31 L20,32 L19,32 L19,33 L18,33 L18,34 L16,34 L16,33 L15,33 L15,32 L14,32 L14,30 L13,30 L13,29 L12,29 L12,28 L11,28 L11,26 L10,26 L10,25 L9,25 L9,24 L7,24 L7,23 L6,23 L6,22 L5,22 L5,18 L4,18 L4,17 L3,17 L3,16 L2,16 L2,14 L1,14 L1,13 L0,13 L0,12 L-1,12 L-1,11 L-2,11 L-2,10 L-3,10 L-3,8 L-4,8 L-4,7 L-5,7 L-5,6 L-6,6 L-6,5 L-3,5 L-3,4 L-2,4 L-2,2 L0,2 Z " fill="#C96D1E" transform="translate(59,53)"/>
<path d="M0,0 L1,0 L1,1 L2,1 L2,2 L3,2 L3,3 L4,3 L4,4 L5,4 L5,5 L6,5 L6,6 L7,6 L7,7 L9,7 L9,8 L10,8 L10,9 L12,9 L12,10 L13,10 L13,11 L15,11 L15,12 L16,12 L16,13 L18,13 L18,14 L19,14 L19,15 L21,15 L21,16 L22,16 L22,17 L24,17 L24,18 L25,18 L25,19 L26,19 L26,20 L27,20 L27,22 L28,22 L28,23 L29,23 L29,24 L30,24 L30,25 L31,25 L31,26 L33,26 L33,28 L34,28 L34,37 L33,37 L33,40 L32,40 L32,41 L31,41 L31,43 L30,43 L30,44 L28,44 L28,45 L25,45 L25,46 L22,46 L22,47 L11,47 L11,46 L6,46 L6,45 L3,45 L3,44 L0,44 L0,43 L3,43 L3,38 L4,38 L4,43 L5,43 L5,42 L29,42 L29,37 L27,37 L27,36 L26,36 L26,22 L25,22 L25,21 L23,21 L23,20 L22,20 L22,19 L20,19 L20,18 L19,18 L19,17 L17,17 L17,16 L16,16 L16,14 L15,14 L15,13 L14,13 L14,12 L12,12 L12,11 L11,11 L11,10 L9,10 L9,9 L8,9 L8,8 L6,8 L6,7 L5,7 L5,6 L4,6 L4,5 L3,5 L3,4 L2,4 L2,3 L1,3 L1,2 L0,2 Z " fill="#322034" transform="translate(66,56)"/>
<path d="M0,0 L12,0 L12,1 L14,1 L14,3 L15,3 L15,4 L16,4 L16,5 L17,5 L17,7 L18,7 L18,8 L19,8 L19,10 L20,10 L20,11 L21,11 L21,13 L22,13 L22,14 L23,14 L23,15 L24,15 L24,16 L25,16 L25,18 L26,18 L26,20 L27,20 L27,21 L28,21 L28,22 L29,22 L29,23 L32,23 L32,22 L33,22 L33,19 L34,19 L34,18 L35,18 L35,16 L36,16 L36,15 L39,15 L39,12 L44,12 L44,11 L46,11 L46,10 L48,10 L48,9 L52,9 L52,3 L53,3 L53,2 L54,2 L54,1 L82,1 L82,2 L55,2 L55,3 L54,3 L54,4 L53,4 L53,10 L49,10 L49,11 L47,11 L47,12 L45,12 L45,13 L43,13 L43,14 L42,14 L42,15 L41,15 L41,16 L40,16 L40,17 L39,17 L39,18 L38,18 L38,19 L37,19 L37,20 L36,20 L36,22 L35,22 L35,24 L34,24 L34,33 L32,33 L32,31 L31,31 L31,30 L30,30 L30,29 L29,29 L29,27 L28,27 L28,26 L27,26 L27,25 L26,25 L26,23 L25,23 L25,22 L24,22 L24,21 L23,21 L23,19 L22,19 L22,18 L21,18 L21,16 L20,16 L20,15 L19,15 L19,14 L18,14 L18,12 L17,12 L17,11 L16,11 L16,10 L15,10 L15,8 L14,8 L14,7 L13,7 L13,5 L12,5 L12,4 L11,4 L11,3 L10,3 L10,2 L5,2 L5,3 L2,3 L2,4 L-1,4 L-1,5 L-3,5 L-3,6 L-6,6 L-6,7 L-8,7 L-8,8 L-11,8 L-11,7 L-9,7 L-9,6 L-7,6 L-7,4 L-6,4 L-6,3 L-3,3 L-3,2 L-1,2 L-1,1 L0,1 Z " fill="#8B522B" transform="translate(25,12)"/>
<path d="M0,0 L1,0 L1,1 L2,1 L2,2 L3,2 L3,4 L4,4 L4,6 L5,6 L5,7 L6,7 L6,10 L9,10 L9,9 L10,9 L10,15 L9,15 L9,19 L10,19 L10,21 L8,21 L8,23 L7,23 L7,24 L6,24 L6,25 L5,25 L5,26 L4,26 L4,27 L3,27 L3,28 L2,28 L2,29 L1,29 L1,30 L-1,30 L-1,31 L-3,31 L-3,32 L-5,32 L-5,33 L-7,33 L-7,34 L-12,34 L-12,33 L-9,33 L-9,32 L-8,32 L-8,30 L-7,30 L-7,27 L-8,27 L-8,26 L-7,26 L-7,25 L-5,25 L-5,24 L-4,24 L-4,23 L-3,23 L-3,22 L-2,22 L-2,20 L-1,20 L-1,19 L0,19 L0,9 L-1,9 L-1,7 L0,7 Z " fill="#AE5419" transform="translate(102,76)"/>
</svg>
